# xmcd CD database file
#
# Track frame offsets:
#	150
#	16283
#	36384
#	51454
#	64533
#	73766
#	97584
#	105912
#	121647
#	134998
#	159133
#	169287
#	175860
#
# Disc length: 2642 seconds
#
# Revision: 0
# Processed by: cddbd v1.5.2PL0 Copyright (c) Steve Scherf et al.
# Submitted via: CDex 1.60beta1-cs1
#
DISCID=a70a500d
DTITLE=Ann Burton - Laughing at Life
DYEAR=1900
DGENRE=Jazz
TTITLE0=I get kick out of You
TTITLE1=You and me against the World
TTITLE2=Love, you did't do right by me
TTITLE3=Poor Butterfly
TTITLE4=A lovely way to spent an evening
TTITLE5=It never entered my mind
TTITLE6=Sweet William
TTITLE7=Sooner or Later
TTITLE8=You fascinate me so
TTITLE9=Something cool
TTITLE10=Laughing at Life
TTITLE11=Falling in love with love
TTITLE12=Rainy days and Mondays
EXTD=
EXTT0=
EXTT1=
EXTT2=
EXTT3=
EXTT4=
EXTT5=
EXTT6=
EXTT7=
EXTT8=
EXTT9=
EXTT10=
EXTT11=
EXTT12=
PLAYORDER=
